<svg width="720" height="180" viewBox="0 0 720 180" fill="none" xmlns="http://www.w3.org/2000/svg">
  <rect width="720" height="180" rx="36" fill="#FFF9F4"/>
  <rect x="24" y="24" width="132" height="132" rx="30" fill="url(#paint0_linear)"/>
  <g stroke="#C8693A" stroke-width="4.5" stroke-linecap="round" stroke-linejoin="round">
    <path d="M90 118V77"/>
    <path d="M77 131H103"/>
    <path d="M86 118L78 132"/>
    <path d="M94 118L102 132"/>
    <path d="M90 81C83 71 73 67 66 67C69 57 77 52 84 52C84 45 87 40 90 37C93 40 96 45 96 52C103 52 111 57 114 67C107 67 97 71 90 81Z"/>
    <path d="M73 80C66 73 57 71 51 72C54 64 61 60 68 60"/>
    <path d="M107 80C114 73 123 71 129 72C126 64 119 60 112 60"/>
    <path d="M65 93C57 87 48 85 42 87C46 79 54 76 61 76"/>
    <path d="M115 93C123 87 132 85 138 87C134 79 126 76 119 76"/>
  </g>
  <text x="188" y="83" fill="#2B2118" font-family="Georgia, 'Times New Roman', serif" font-size="54" font-weight="500">Kapruka</text>
  <text x="403" y="83" fill="#C8693A" font-family="Georgia, 'Times New Roman', serif" font-size="54" font-weight="500">AI</text>
  <text x="190" y="118" fill="#65564A" font-family="'Segoe UI', Arial, sans-serif" font-size="22">Sri Lanka’s MCP-powered shopping assistant</text>
  <defs>
    <linearGradient id="paint0_linear" x1="90" y1="24" x2="90" y2="156" gradientUnits="userSpaceOnUse">
      <stop stop-color="#FFF6EF"/>
      <stop offset="1" stop-color="#F6DFD0"/>
    </linearGradient>
  </defs>
</svg>
