<svg width="128" height="128" viewBox="0 0 128 128" fill="none" xmlns="http://www.w3.org/2000/svg">
  <rect width="128" height="128" rx="32" fill="#FFF7F0"/>
  <g stroke="#C8693A" stroke-width="4.5" stroke-linecap="round" stroke-linejoin="round">
    <path d="M64 95V54"/>
    <path d="M51 108H77"/>
    <path d="M60 95L52 109"/>
    <path d="M68 95L76 109"/>
    <path d="M64 58C57 48 47 44 40 44C43 34 51 29 58 29C58 22 61 17 64 14C67 17 70 22 70 29C77 29 85 34 88 44C81 44 71 48 64 58Z"/>
    <path d="M47 57C40 50 31 48 25 49C28 41 35 37 42 37"/>
    <path d="M81 57C88 50 97 48 103 49C100 41 93 37 86 37"/>
    <path d="M39 70C31 64 22 62 16 64C20 56 28 53 35 53"/>
    <path d="M89 70C97 64 106 62 112 64C108 56 100 53 93 53"/>
    <path d="M53 42C48 34 42 29 35 27C38 22 45 20 50 21"/>
    <path d="M75 42C80 34 86 29 93 27C90 22 83 20 78 21"/>
  </g>
</svg>
